<?xml version="1.0"?>
<svg xmlns="http://www.w3.org/2000/svg" height="512px" viewBox="0 0 480 480.13669" width="512px" class=""><g><g fill="#9bc9ff"><path d="m117.386719 26.757812c-25.007813-25.007812-65.550781-25.007812-90.558594 0-25.007813 25.007813-25.007813 65.554688 0 90.5625zm0 0" data-original="#000000" class="active-path" data-old_color="#000000" style="fill:#24ACE1"/><path d="m453.386719 26.757812c-25.027344-24.960937-65.535157-24.960937-90.558594 0l90.558594 90.5625c24.960937-25.027343 24.960937-65.535156 0-90.5625zm0 0" data-original="#000000" class="active-path" data-old_color="#000000" style="fill:#24ACE1"/><path d="m264.105469 240.039062c0 13.253907-10.742188 24-24 24-13.253907 0-24-10.746093-24-24 0-13.253906 10.746093-24 24-24 13.257812 0 24 10.746094 24 24zm0 0" data-original="#000000" class="active-path" data-old_color="#000000" style="fill:#24ACE1"/></g><path d="m459.035156 21.085938c-28.183594-27.984376-73.671875-27.984376-101.855468 0-.75.753906-1.34375 1.648437-1.746094 2.632812-.347656.878906-.535156 1.8125-.550782 2.757812-.023437.089844-.042968.183594-.054687.273438 0 1.046875.207031 2.082031.605469 3.046875.394531.980469.988281 1.871094 1.738281 2.617187l39.621094 39.625-15.316407 15.3125c-38.382812-35.480468-88.726562-55.1875-140.992187-55.203124-.136719-.039063-.242187-.109376-.378906-.109376-.132813 0-.238281.070313-.375.070313-52.273438.023437-102.617188 19.75-140.992188 55.25l-15.320312-15.320313 39.625-39.625c.75-.746093 1.339843-1.636718 1.734375-2.617187.402344-.964844.609375-2 .609375-3.046875 0-.09375-.046875-.175781-.054688-.273438.003907-1.84375-.710937-3.621093-2-4.941406-.121093-.136718-.160156-.304687-.289062-.433594-28.128907-28.132812-73.738281-28.136718-101.871094-.007812s-28.136719 73.738281-.007813 101.871094c.109376.121094.269532.152344.390626.265625.652343.613281 1.402343 1.113281 2.222656 1.472656.875.34375 1.800781.527344 2.738281.550781.09375 0 .191406.054688.296875.054688 1.039062-.003906 2.074219-.207032 3.039062-.597656.976563-.402344 1.867188-.996094 2.613282-1.746094l39.640625-39.613282 15.320312 15.320313c-40.9375 44.253906-60.660156 104.09375-54.0625 164.015625 6.601563 59.921875 38.875 114.035156 88.464844 148.320312l-55.386719 55.375c-2.078125 2.007813-2.914062 4.984376-2.179687 7.78125.730469 2.796876 2.914062 4.980469 5.714843 5.710938 2.796876.734375 5.769532-.101562 7.777344-2.179688l57.898438-57.898437c64.539062 37.65625 144.351562 37.65625 208.894531 0l57.894531 57.898437c3.140625 3.03125 8.128906 2.988282 11.214844-.097656 3.085938-3.085937 3.128906-8.078125.097656-11.214844l-55.382812-55.375c49.574218-34.296874 81.835937-88.40625 88.4375-148.324218 6.597656-59.917969-13.117188-119.753906-54.039063-164.011719l15.335938-15.320313 39.625 39.621094c.75.75 1.636719 1.34375 2.617187 1.746094.964844.390625 1.996094.59375 3.039063.601562.105469 0 .199219-.058593.296875-.058593.9375-.023438 1.863281-.207031 2.734375-.550781.820312-.359376 1.574219-.859376 2.226562-1.472657.117188-.113281.277344-.144531.390625-.265625 28.007813-28.1875 28.007813-73.699218 0-101.886718zm-431.792968 84.503906c-16.558594-22.308594-14.273438-53.382813 5.371093-73.027344 19.644531-19.648438 50.722657-21.933594 73.03125-5.371094zm404.519531 126.449218h-39.65625c-4.417969 0-8 3.582032-8 8 0 4.417969 3.582031 8 8 8h39.800781c-4.277344 99.683594-84.113281 179.523438-183.800781 183.800782v-39.800782c0-4.417968-3.582031-8-8-8s-8 3.582032-8 8v39.800782c-99.683594-4.277344-179.523438-84.117188-183.796875-183.800782h39.796875c4.417969 0 8-3.582031 8-8 0-4.417968-3.582031-8-8-8h-39.65625c1.816406-47.960937 21.617187-93.484374 55.464843-127.511718.128907-.113282.289063-.152344.410157-.273438.117187-.121094.160156-.28125.269531-.40625 34.023438-33.859375 79.546875-53.660156 127.511719-55.464844v39.65625c0 4.417969 3.582031 8 8 8s8-3.582031 8-8v-39.65625c47.964843 1.800782 93.492187 21.605469 127.511719 55.464844.113281.125.152343.285156.273437.40625s.28125.160156.40625.273438c33.847656 34.027344 53.648437 79.550781 55.464844 127.511718zm-57.207031-204.863281c22.292968-16.722656 53.492187-14.503906 73.199218 5.199219 19.703125 19.707031 21.921875 50.90625 5.199219 73.199219zm0 0" fill="#1e81ce" data-original="#1E81CE" class="" data-old_color="#1e81ce" style="fill:#000000"/><path d="m353.890625 165.109375-90.992187 52.527344c-5.996094-6.140625-14.214844-9.605469-22.800782-9.605469-8.582031 0-16.804687 3.464844-22.800781 9.605469l-49.414063-28.527344c-2.476562-1.449219-5.542968-1.464844-8.03125-.035156-2.488281 1.429687-4.019531 4.085937-4.015624 6.957031.007812 2.867188 1.550781 5.515625 4.046874 6.933594l49.496094 28.578125c-3.828125 13.082031 1.050782 27.15625 12.15625 35.058593 11.109375 7.902344 26.003906 7.902344 37.109375 0 11.105469-7.902343 15.988281-21.976562 12.15625-35.058593l91.074219-52.578125c3.792969-2.222656 5.082031-7.089844 2.882812-10.898438-2.199218-3.808594-7.058593-5.128906-10.882812-2.957031zm-113.785156 90.929687c-8.835938 0-16-7.164062-16-16 0-8.835937 7.164062-16 16-16 8.835937 0 16 7.164063 16 16 0 8.835938-7.164063 16-16 16zm0 0" fill="#1e81ce" data-original="#1E81CE" class="" data-old_color="#1e81ce" style="fill:#000000"/></g> </svg>
