<?xml version="1.0"?>
<svg xmlns="http://www.w3.org/2000/svg" height="512px" viewBox="-170 0 512 512" width="512px"><g><path d="m155.734375 207.28125-15.949219-24.136719c-5.675781-8.585937-8.945312-18.554687-9.460937-28.832031l-5.40625-108.152344c4.476562-3.363281 7.390625-8.699218 7.390625-14.71875v-13.019531c0-10.15625-8.261719-18.421875-18.421875-18.421875h-56.410157c-10.160156 0-18.421874 8.265625-18.421874 18.421875v13.019531c0 6.019532 2.914062 11.355469 7.390624 14.71875l-5.40625 108.152344c-.515624 10.277344-3.785156 20.25-9.457031 28.832031l-15.949219 24.136719c-10.226562 15.480469-15.632812 33.464844-15.632812 52.019531v84.019531c0 4.183594 3.390625 7.574219 7.574219 7.574219 4.183593 0 7.574219-3.390625 7.574219-7.574219v-84.019531c0-15.574219 4.539062-30.671875 13.121093-43.667969l15.949219-24.136718c6.710938-10.15625 10.761719-21.847656 11.78125-33.957032h59.363281c1.023438 12.105469 5.070313 23.796876 11.78125 33.957032l15.949219 24.136718c8.585938 12.992188 13.121094 28.09375 13.121094 43.667969v84.019531c0 4.183594 3.390625 7.574219 7.574218 7.574219 4.183594 0 7.574219-3.390625 7.574219-7.574219v-84.019531c0-18.554687-5.40625-36.539062-15.628906-52.019531zm-45.796875-157.417969 1.292969 25.875h-51.097657l1.292969-25.875zm-50.5625 41.023438h52.613281l2.578125 51.503906h-57.765625zm-5.171875-72.464844c0-1.804687 1.46875-3.273437 3.273437-3.273437h56.410157c1.804687 0 3.273437 1.46875 3.273437 3.273437v13.019531c0 1.804688-1.46875 3.273438-3.273437 3.273438h-56.410157c-1.804687 0-3.273437-1.46875-3.273437-3.273438zm0 0" data-original="#000000" class="active-path" data-old_color="#000000" fill="#24ACE1"/><path d="m163.789062 371.21875c-4.183593 0-7.574218 3.390625-7.574218 7.574219v105.023437c0 7.1875-5.847656 13.035156-13.035156 13.035156h-114.992188c-7.191406 0-13.039062-5.847656-13.039062-13.035156v-105.023437c0-4.183594-3.390626-7.574219-7.574219-7.574219-4.183594 0-7.574219 3.390625-7.574219 7.574219v105.023437c0 15.539063 12.644531 28.183594 28.1875 28.183594h114.992188c15.539062 0 28.183593-12.644531 28.183593-28.183594v-105.023437c0-4.183594-3.390625-7.574219-7.574219-7.574219zm0 0" data-original="#000000" class="active-path" data-old_color="#000000" fill="#24ACE1"/><path d="m57.40625 263.574219h10.5625c4.183594 0 7.574219-3.390625 7.574219-7.574219s-3.390625-7.574219-7.574219-7.574219h-10.5625c-15.3125 0-27.769531 12.460938-27.769531 27.769531v141.382813c0 15.3125 12.457031 27.769531 27.769531 27.769531h56.550781c15.3125 0 27.773438-12.457031 27.773438-27.769531v-141.382813c0-15.3125-12.460938-27.769531-27.773438-27.769531h-10.632812c-4.183594 0-7.574219 3.390625-7.574219 7.574219s3.390625 7.574219 7.574219 7.574219h10.632812c6.960938 0 12.625 5.664062 12.625 12.621093v141.382813c0 6.960937-5.664062 12.621094-12.625 12.621094h-56.550781c-6.960938 0-12.625-5.660157-12.625-12.621094v-141.382813c0-6.957031 5.664062-12.621093 12.625-12.621093zm0 0" data-original="#000000" class="active-path" data-old_color="#000000" fill="#24ACE1"/></g> </svg>
