<svg id="Layer_1" enable-background="new 0 0 124 124" height="512" viewBox="0 0 124 124" width="512" xmlns="http://www.w3.org/2000/svg"><path d="m119 124h-114c-1.104 0-2-.896-2-2s.896-2 2-2h114c1.104 0 2 .896 2 2s-.895 2-2 2z" fill="#303053"/><path d="m5 56.051 57-54.051 57 54.051z" fill="#6dc9f7"/><path d="m119 58.05h-114c-.818 0-1.555-.499-1.858-1.259-.303-.761-.112-1.629.482-2.192l57-54.05c.771-.732 1.98-.732 2.752 0l27.754 26.318c.802.76.835 2.025.075 2.827-.759.803-2.026.836-2.827.075l-26.378-25.013-51.984 49.294h103.969l-20.23-19.182c-.802-.76-.835-2.025-.075-2.827.76-.803 2.025-.836 2.827-.075l23.869 22.634c.594.563.785 1.432.482 2.192-.303.759-1.039 1.258-1.858 1.258z" fill="#303053"/><path d="m19.117 56.051h85.766v65.95h-85.766z" fill="#fff"/><path d="m104.883 124h-85.766c-1.104 0-2-.896-2-2v-65.95c0-1.104.896-2 2-2h85.766c1.104 0 2 .896 2 2v65.95c0 1.105-.895 2-2 2zm-83.766-4h81.766v-61.95h-81.766z" fill="#303053"/><path d="m76.233 75.539c3.347 3.639 3.108 8.522 2.959 10.888-.747 13.921-18.26 23.444-20.233 24.475-1.345-1.152-18.051-10.069-20.203-23.049-.179-1.122-1.285-7.794 2.929-12.313 3.287-3.518 7.86-3.7 8.577-3.7 3.108-.061 6.246 1.971 8.697 4.276 2.451-2.275 5.589-4.307 8.697-4.276.807.03 5.35.181 8.577 3.699z" fill="#fff"/><path d="m58.96 112.902c-.468 0-.931-.164-1.302-.481-.116-.091-.643-.43-1.107-.729-4.394-2.825-17.764-11.423-19.768-23.513-.53-3.313-.779-9.48 3.439-14.004 3.938-4.214 9.427-4.336 10.04-4.336 3.299-.037 6.387 1.733 8.705 3.624 2.299-1.854 5.352-3.624 8.62-3.624h.088c2.38.088 6.747.768 10.031 4.349 3.988 4.337 3.633 9.963 3.481 12.365-.805 14.981-19.207 25.025-21.302 26.121-.291.153-.609.228-.925.228zm-8.564-39.064c-.032 0-.063 0-.094.001-.213 0-4.323.035-7.155 3.065-3.171 3.4-2.749 8.549-2.42 10.604 1.716 10.354 13.963 18.23 17.987 20.818.13.084.25.16.36.231 4.147-2.351 17.506-10.789 18.121-22.239.131-2.072.4-6.345-2.434-9.426 0-.001-.001-.002-.001-.003-2.302-2.509-5.477-2.989-7.165-3.053-.015 0-.03 0-.044 0-2.047 0-4.627 1.327-7.23 3.743-.772.716-1.965.711-2.731-.009-2.564-2.409-5.114-3.732-7.194-3.732z" fill="#303053"/><path d="m84.512 75.539c3.347 3.639 3.108 8.522 2.959 10.888-.747 13.921-18.26 23.444-20.233 24.475-1.345-1.152-18.051-10.069-20.203-23.049-.179-1.122-1.285-7.794 2.929-12.313 3.287-3.518 8.198-1.343 8.915-1.343 3.108-.061 5.828-2.793 8.279-.488 2.451-2.275 5.669-1.9 8.777-1.869.806.03 5.349.181 8.577 3.699z" fill="#ffa35f"/><path d="m58.96 112.902c-.468 0-.931-.164-1.302-.481-.116-.091-.643-.43-1.107-.729-4.394-2.825-17.764-11.423-19.768-23.513-.53-3.313-.779-9.48 3.439-14.004 3.938-4.214 9.427-4.336 10.04-4.336 3.299-.037 6.387 1.733 8.705 3.624 2.299-1.854 5.352-3.624 8.62-3.624h.088c2.38.088 6.747.768 10.031 4.349 3.988 4.337 3.633 9.963 3.481 12.365-.805 14.981-19.207 25.025-21.302 26.121-.291.153-.609.228-.925.228zm-8.564-39.064c-.032 0-.063 0-.094.001-.213 0-4.323.035-7.155 3.065-3.171 3.4-2.749 8.549-2.42 10.604 1.716 10.354 13.963 18.23 17.987 20.818.13.084.25.16.36.231 4.147-2.351 17.506-10.789 18.121-22.239.131-2.072.4-6.345-2.434-9.426 0-.001-.001-.002-.001-.003-2.302-2.509-5.477-2.989-7.165-3.053-.015 0-.03 0-.044 0-2.047 0-4.627 1.327-7.23 3.743-.772.716-1.965.711-2.731-.009-2.564-2.409-5.114-3.732-7.194-3.732z" fill="#303053"/><path d="m62.497 101.168c-1.104 0-2-.896-2-2v-12.358c0-1.104.896-2 2-2s2 .896 2 2v12.358c0 1.105-.895 2-2 2z" fill="#f28231"/><path d="m67.959 94.99h-10.923c-1.104 0-2-.896-2-2s.896-2 2-2h10.923c1.104 0 2 .896 2 2s-.896 2-2 2z" fill="#f28231"/><g fill="#fff"><path d="m58.358 98.079c-1.104 0-2-.896-2-2v-12.358c0-1.104.896-2 2-2s2 .896 2 2v12.357c0 1.105-.895 2.001-2 2.001z"/><path d="m63.82 91.9h-10.924c-1.104 0-2-.896-2-2s.896-2 2-2h10.924c1.104 0 2 .896 2 2s-.896 2-2 2z"/></g></svg>