<svg id="Layer_1" enable-background="new 0 0 124 124" height="512" viewBox="0 0 124 124" width="512" xmlns="http://www.w3.org/2000/svg"><path d="m2 71.957h120v20.478h-120z" fill="#fff"/><path d="m2 82.44h120v9.995h-120z" fill="#e9faff"/><g fill="#303053"><path d="m122 94.436h-120c-1.104 0-2-.896-2-2v-20.479c0-1.104.896-2 2-2h67.825c1.104 0 2 .896 2 2s-.896 2-2 2h-65.825v16.479h116v-16.479h-40.619c-1.104 0-2-.896-2-2s.896-2 2-2h42.619c1.104 0 2 .896 2 2v20.479c0 1.104-.896 2-2 2z"/><path d="m2 120c-1.104 0-2-.896-2-2v-77.935c0-1.104.896-2 2-2s2 .896 2 2v77.935c0 1.104-.896 2-2 2z"/><path d="m122 120c-1.104 0-2-.896-2-2v-46.043c0-1.104.896-2 2-2s2 .896 2 2v46.043c0 1.104-.896 2-2 2z"/></g><path d="m18.531 55.393c-8.758 0-15.857 7.058-15.857 16.564h31.714c-.001-9.507-7.1-16.564-15.857-16.564z" fill="#6dc9f7"/><path d="m34.388 73.957h-31.714c-1.104 0-2-.896-2-2 0-10.41 7.844-18.564 17.857-18.564s17.857 8.154 17.857 18.564c0 1.105-.896 2-2 2zm-29.59-4h27.466c-.901-7.188-6.609-12.564-13.733-12.564s-12.832 5.377-13.733 12.564z" fill="#303053"/><ellipse cx="62" cy="28.221" fill="#fff" rx="21.943" ry="22.221"/><path d="m62 52.441c-13.203 0-23.943-10.865-23.943-24.221s10.74-24.22 23.943-24.22 23.943 10.865 23.943 24.221-10.74 24.22-23.943 24.22zm0-44.441c-10.997 0-19.943 9.071-19.943 20.221s8.946 20.22 19.943 20.22 19.943-9.071 19.943-20.221-8.946-20.22-19.943-20.22z" fill="#303053"/><ellipse cx="66.353" cy="32.688" fill="#ffa35f" rx="21.943" ry="22.221"/><path d="m66.353 43.234c-1.104 0-2-.896-2-2v-17.092c0-1.104.896-2 2-2s2 .896 2 2v17.093c0 1.104-.896 1.999-2 1.999z" fill="#f28231"/><path d="m74.295 34.688h-15.885c-1.104 0-2-.896-2-2s.896-2 2-2h15.886c1.104 0 2 .896 2 2s-.896 2-2.001 2z" fill="#f28231"/><path d="m62 52.441c-13.203 0-23.943-10.865-23.943-24.221s10.74-24.22 23.943-24.22 23.943 10.865 23.943 24.221-10.74 24.22-23.943 24.22zm0-44.441c-10.997 0-19.943 9.071-19.943 20.221s8.946 20.22 19.943 20.22 19.943-9.071 19.943-20.221-8.946-20.22-19.943-20.22z" fill="#303053"/><path d="m61.882 38.767c-1.104 0-2-.896-2-2v-17.093c0-1.104.896-2 2-2s2 .896 2 2v17.093c0 1.104-.895 2-2 2z" fill="#fff"/><path d="m69.825 30.22h-15.886c-1.104 0-2-.896-2-2s.896-2 2-2h15.886c1.104 0 2 .896 2 2s-.895 2-2 2z" fill="#fff"/></svg>