<?xml version="1.0"?>
<svg xmlns="http://www.w3.org/2000/svg" id="Layer_1" enable-background="new 0 0 124 124" height="512px" viewBox="0 0 124 124" width="512px" class=""><g><path d="m95.4 21.167c-11.478-6.239-18.368-14.447-21.792-19.185-8.7 11.108-25.89 24.731-45.638 26.497-.33 10.033.248 34.931 16.408 59.569 9.628 14.68 21.191 23.785 28.959 28.905.241-.33.421-.33.662 0 7.832-5.129 19.774-14.441 29.648-29.628 15.76-24.24 16.563-48.543 16.321-58.546-5.575-.583-14.706-2.252-24.568-7.612z" fill="#acebff" data-original="#ACEBFF" class="active-path" data-old_color="#acebff" style="fill:#24ACE1"/><path d="m71.486 26.174c-11.478-6.239-18.368-14.447-21.792-19.185-8.7 11.108-25.89 24.731-45.638 26.497-.33 10.034.248 34.931 16.408 59.569 9.628 14.68 21.191 23.785 28.959 28.905l.331-.299.331.299c7.832-5.129 19.774-14.441 29.648-29.628 15.76-24.24 16.563-48.543 16.321-58.546-5.575-.583-14.706-2.252-24.568-7.612z" fill="#fff" data-original="#FFF" class=""/><path d="m4.056 33.487c-.33 10.033.248 34.93 16.408 59.568 9.513 14.504 20.908 23.558 28.672 28.712v-114.081c-8.862 10.973-25.742 24.071-45.08 25.801z" fill="#ffebdd" data-original="#FFEBDD" class="" data-old_color="#ffebdd" style="fill:#FFF"/><path d="m121.968 28.73c-.024-1.005-.792-1.836-1.792-1.94-8.416-.88-16.431-3.363-23.821-7.38-8.281-4.502-15.586-10.933-21.125-18.598-.759-1.051-2.39-1.091-3.196-.062-3.379 4.314-8.082 9.005-13.711 13.204-2.56-2.51-4.911-5.233-7.008-8.134-.763-1.056-2.388-1.093-3.196-.062-8.462 10.803-25.126 24.027-44.241 25.736-1.006.09-1.788.917-1.821 1.926-.464 14.122 1.909 28.445 6.865 41.42.394 1.031 1.551 1.55 2.582 1.154 1.032-.393 1.549-1.55 1.155-2.582-4.565-11.95-6.852-25.095-6.646-38.124 18.466-2.302 34.537-14.395 43.617-25.06 5.672 7.24 12.853 13.329 20.902 17.703 7.337 3.989 15.253 6.554 23.552 7.637.109 14.394-2.714 35.199-16.026 55.674-7.321 11.26-16.782 20.819-28.133 28.425-.111-.01-.224-.01-.335 0-11.047-7.454-20.279-16.77-27.453-27.709-1.968-3.001-3.79-6.149-5.413-9.357-.5-.985-1.705-1.381-2.688-.881-.986.498-1.38 1.701-.882 2.687 1.69 3.34 3.587 6.618 5.637 9.743 7.676 11.704 17.612 21.621 29.531 29.478.747.493 2.112.493 2.859.003 4.833-3.165 9.331-6.679 13.503-10.499 2.422 1.925 4.933 3.763 7.552 5.489.746.492 2.112.493 2.859.003 12.235-8.013 22.406-18.177 30.23-30.211 14.415-22.169 17.007-44.692 16.643-59.683zm-19.996 57.505c-7.319 11.258-16.781 20.816-28.133 28.425-.112-.009-.223-.009-.334 0-2.029-1.369-3.973-2.824-5.877-4.319 5.178-5.13 9.79-10.778 13.783-16.92 14.415-22.171 17.007-44.694 16.644-59.684-.024-1.005-.792-1.836-1.792-1.94-8.416-.88-16.431-3.363-23.822-7.379-3.965-2.155-7.698-4.764-11.129-7.729 4.827-3.665 8.984-7.654 12.232-11.468 5.671 7.238 12.853 13.328 20.902 17.702 7.338 3.989 15.253 6.554 23.552 7.638.108 14.394-2.715 35.199-16.026 55.674z" fill="#303053" data-original="#303053" class="" data-old_color="#303053" style="fill:#000000"/><path d="m74.354 59.642h-19.439v-19.333h-9.719v19.333h-19.439v9.666h19.439v19.333h9.719v-19.333h19.439z" fill="#f28231" data-original="#F28231" class="" data-old_color="#f28231" style="fill:#24ACE1"/></g> </svg>
