<?xml version="1.0"?>
<svg xmlns="http://www.w3.org/2000/svg" id="Layer_1" enable-background="new 0 0 124 124" height="512px" viewBox="0 0 124 124" width="512px" class=""><g><path d="m96.161 49.161c-6.908-.22-15.599-6.825-26.519-2.422v-18.715c16.045-16.073 28.747 12.109 48.358 9.247-1.337 2.642-3.343 6.284-12.48 4.082l4.011 4.963c-4.011 1.321-7.8-.899-11.811-3.101-1.337 2.202 1.114 4.183 1.114 5.725-.668 0-1.782.221-2.673.221z" fill="#6dc9f7" data-original="#6DC9F7" class="" data-old_color="#6dc9f7" style="fill:#24ACE1"/><path d="m96.161 51.161c-.021 0-.042 0-.064-.001-2.568-.082-5.221-.91-8.029-1.787-5.18-1.618-11.051-3.452-17.678-.779-.616.248-1.316.175-1.867-.197s-.881-.993-.881-1.658v-18.715c0-.53.21-1.038.584-1.413 10.231-10.247 19.478-4.357 28.42 1.338 6.542 4.167 13.307 8.478 21.064 7.343.739-.107 1.477.205 1.913.811s.498 1.405.161 2.071c-1.605 3.171-3.953 5.942-9.525 5.862l.828 1.024c.413.511.548 1.192.363 1.823-.186.63-.669 1.129-1.293 1.334-3.518 1.158-6.764.146-9.881-1.377.303.634.559 1.33.559 2.101 0 1.104-.896 2-2 2-.194 0-.563.043-.92.085-.544.063-1.16.135-1.754.135zm-18.78-7.93c4.442 0 8.424 1.244 11.879 2.323 2.429.759 4.729 1.477 6.695 1.595-.595-1.301-1.096-3.076.056-4.972.556-.916 1.736-1.228 2.672-.715l.447.246c2.297 1.264 4.395 2.417 6.398 2.836l-1.563-1.934c-.539-.667-.593-1.602-.135-2.326s1.321-1.079 2.159-.875c3.924.946 6.199.743 7.64.012-7.22-.511-13.487-4.503-19.131-8.099-9.35-5.955-15.54-9.299-22.856-2.452v15.098c1.987-.524 3.903-.737 5.739-.737z" fill="#303053" data-original="#303053" class="" data-old_color="#303053" style="fill:#000000"/><path d="m25.165 48.72c0-1.541 2.451-3.523 1.114-5.725-4.011 2.422-7.8 4.642-11.811 3.101l4.011-4.963c-9.136 2.202-11.142-1.44-12.479-4.082 19.388 2.862 32.09-25.32 48.358-9.247v18.715c-12.256-5.065-21.839 4.623-29.193 2.201z" fill="#6dc9f7" data-original="#6DC9F7" class="" data-old_color="#6dc9f7" style="fill:#24ACE1"/><path d="m27.775 51.117c-1.095 0-2.172-.147-3.235-.497-.82-.27-1.375-1.036-1.375-1.899 0-.698.21-1.335.475-1.919-3.054 1.543-6.362 2.519-9.889 1.163-.597-.229-1.048-.731-1.214-1.349s-.026-1.278.376-1.776l.828-1.024c-5.573.078-7.92-2.69-9.525-5.862-.337-.667-.275-1.466.162-2.072s1.175-.921 1.915-.809c7.631 1.126 14.332-3.154 20.817-7.292 8.981-5.732 18.269-11.66 28.655-1.399.38.376.594.888.594 1.423v18.715c0 .667-.333 1.291-.888 1.663-.555.371-1.259.44-1.875.186-6.408-2.649-11.94-.859-17.288.874-2.957.955-5.796 1.874-8.533 1.874zm-1.498-10.122c.676 0 1.335.343 1.711.962 1.207 1.987.599 3.841-.03 5.156 2.063-.042 4.458-.817 7.116-1.678 4.812-1.558 10.658-3.451 17.284-1.7v-15.077c-7.455-6.884-13.688-3.51-23.098 2.494-5.586 3.565-11.788 7.522-18.896 8.045 1.44.733 3.715.939 7.646-.009.835-.202 1.701.151 2.159.875s.404 1.66-.135 2.326l-1.708 2.112c2.014-.351 4.209-1.584 6.918-3.219.325-.194.681-.287 1.033-.287z" fill="#303053" data-original="#303053" class="" data-old_color="#303053" style="fill:#000000"/><ellipse cx="62.061" cy="11.701" fill="#fff" rx="9.819" ry="9.701" data-original="#FFF"/><path d="m62.061 23.403c-6.517 0-11.819-5.25-11.819-11.702s5.302-11.701 11.819-11.701 11.819 5.249 11.819 11.701-5.302 11.702-11.819 11.702zm0-19.403c-4.312 0-7.819 3.455-7.819 7.701s3.508 7.702 7.819 7.702 7.819-3.455 7.819-7.702-3.507-7.701-7.819-7.701z" fill="#303053" data-original="#303053" class="" data-old_color="#303053" style="fill:#000000"/><ellipse cx="67.061" cy="13.701" fill="#ffa35f" rx="9.819" ry="9.701" data-original="#FFA35F" class="active-path" data-old_color="#ffa35f" style="fill:#24ACE1"/><g fill="#303053"><path d="m62.061 23.403c-6.517 0-11.819-5.25-11.819-11.702s5.302-11.701 11.819-11.701 11.819 5.249 11.819 11.701-5.302 11.702-11.819 11.702zm0-19.403c-4.312 0-7.819 3.455-7.819 7.701s3.508 7.702 7.819 7.702 7.819-3.455 7.819-7.702-3.507-7.701-7.819-7.701z" data-original="#000000" class="" style="fill:#000000"/><path d="m62.061 124c-1.104 0-2-.896-2-2v-99.959c0-1.104.896-2 2-2s2 .896 2 2v99.959c0 1.104-.895 2-2 2z" data-original="#000000" class="" style="fill:#000000"/><path d="m79.374 93.489c-.382 0-.768-.109-1.109-.337-.918-.613-1.166-1.855-.552-2.774 1.388-2.078 2.868-5.159 2.034-8.034-1.252-4.317-7.496-6.266-11.227-7.43l-.88-.277c-4.623-1.473-8.548-1.233-12.345-1.002-4.788.294-9.312.569-13.796-2.874-2.144-1.646-5.756-5.193-5.854-10.458-.11-5.876 4.299-9.778 5.653-10.833.872-.679 2.128-.523 2.807.347.679.871.524 2.128-.347 2.807-.701.546-4.191 3.48-4.114 7.604.067 3.589 2.718 6.152 4.292 7.36 3.297 2.532 6.747 2.321 11.116 2.054 3.968-.242 8.468-.517 13.804 1.184l.856.269c4.498 1.403 12.026 3.752 13.877 10.134.999 3.445.118 7.377-2.549 11.37-.387.578-1.021.89-1.666.89z" data-original="#000000" class="" style="fill:#000000"/><path d="m73.615 108.042c-.382 0-.768-.109-1.109-.337-.918-.614-1.165-1.856-.552-2.774.91-1.362 1.885-3.365 1.359-5.177-.795-2.742-5.012-4.058-7.531-4.844l-.624-.196c-3.158-1.007-5.872-.841-8.496-.68-3.339.204-6.79.415-10.129-2.149-1.598-1.228-4.287-3.876-4.361-7.835-.083-4.42 3.206-7.332 4.216-8.119.871-.68 2.129-.523 2.807.348.679.871.523 2.127-.348 2.807-.455.355-2.725 2.26-2.676 4.891.042 2.284 1.771 3.948 2.798 4.737 2.152 1.653 4.375 1.517 7.449 1.329 2.852-.173 6.085-.372 9.955.862l.601.188c3.287 1.025 8.788 2.742 10.182 7.548.755 2.604.107 5.548-1.875 8.514-.387.574-1.021.887-1.666.887z" data-original="#000000" class="" style="fill:#000000"/><path d="m68.996 121.36c-.382 0-.768-.109-1.109-.337-.918-.614-1.165-1.855-.551-2.774.431-.645 1.11-1.877.817-2.886-.429-1.48-3.02-2.288-4.568-2.771l-.418-.131c-1.981-.632-3.723-.526-5.409-.422-2.343.143-4.767.291-7.188-1.567-1.157-.888-3.109-2.813-3.163-5.732-.061-3.253 2.329-5.371 3.063-5.943.872-.678 2.127-.523 2.807.35.679.871.522 2.128-.35 2.807-.158.124-1.549 1.249-1.521 2.712.024 1.289 1.126 2.271 1.599 2.633 1.18.905 2.357.877 4.508.748 1.86-.113 4.174-.255 6.868.604l.395.124c2.164.675 6.191 1.932 7.219 5.476.559 1.929.098 4.08-1.334 6.223-.386.574-1.02.886-1.665.886z" data-original="#000000" class="" style="fill:#000000"/><path d="m80.446 70.53c-.818 0-1.586-.506-1.881-1.321-.375-1.039.162-2.185 1.201-2.561 3.072-1.11 5.089-3.686 5.139-6.562.047-2.727-1.74-5.296-4.553-6.545-1.01-.448-1.465-1.63-1.017-2.64.449-1.009 1.632-1.462 2.64-1.017 4.284 1.902 7.003 5.933 6.929 10.271-.079 4.55-3.132 8.575-7.778 10.254-.225.082-.455.121-.68.121z" data-original="#000000" class="" style="fill:#000000"/><path d="m55.668 122.469c-1.149 0-2.276-.401-3.169-1.142-1.023-.85-1.65-2.075-1.721-3.361-.138-2.513 1.847-4.761 4.423-5.01 1.095-.106 2.077.699 2.183 1.798s-.699 2.077-1.798 2.183c-.503.049-.833.466-.813.81.01.179.112.361.282.502.12.1.376.257.733.211 1.098-.143 2.1.627 2.244 1.722s-.627 2.1-1.722 2.244c-.214.03-.429.043-.642.043z" data-original="#000000" class="" style="fill:#000000"/></g></g> </svg>
