<?xml version="1.0"?>
<svg xmlns="http://www.w3.org/2000/svg" id="Capa_1" enable-background="new 0 0 512 512" height="512px" viewBox="0 0 512 512" width="512px" class=""><g><path id="XMLID_1603_" d="m382.478 502h-53c-14.083 0-25.5-11.417-25.5-25.5v-102.5h104v102.5c0 14.083-11.417 25.5-25.5 25.5z" fill="#fff" data-original="#FFF"/><path id="XMLID_1610_" d="m303.978 436.5c0 14.083 11.417 25.5 25.5 25.5h53c14.083 0 25.5-11.417 25.5-25.5v-62.5h-104z" fill="#aae2c9" data-original="#AAE2C9" class="active-path" data-old_color="#aae2c9" style="fill:#24ACE1"/><path id="XMLID_1420_" d="m145.895 10h68v44h-68z" fill="#fff" data-original="#FFF"/><path id="XMLID_1419_" d="m179.895 502h75.873v-254.312c0-22.851-9.077-44.765-25.235-60.923l-22.765-22.765v-110h-27.873-27.873v110l-22.765 22.765c-16.158 16.158-25.235 38.073-25.235 60.923v254.312z" fill="#91d9b9" data-original="#91D9B9" class="" data-old_color="#91d9b9" style="fill:#24ACE1"/><path id="XMLID_1418_" d="m103.895 256.127h152v191.873h-152z" fill="#fff" data-original="#FFF"/><path id="XMLID_1110_" d="m217.768 159.858v-96.637c3.599-1.514 6.127-5.072 6.127-9.221v-44c0-5.523-4.478-10-10-10h-68c-5.522 0-10 4.477-10 10v44c0 4.149 2.528 7.708 6.127 9.221v96.637l-19.836 19.836c-18.162 18.163-28.164 42.311-28.164 67.994v59.375c0 5.523 4.478 10 10 10s10-4.477 10-10v-40.936h131.746v171.873h-131.747v-40.937c0-5.523-4.478-10-10-10s-10 4.477-10 10v104.937c0 5.523 4.478 10 10 10h151.746c5.522 0 10-4.477 10-10v-254.312c0-25.685-10.002-49.832-28.163-67.995zm-61.873-139.858h48v24h-48zm-19.567 173.836 22.765-22.765c1.875-1.875 2.929-4.419 2.929-7.071v-100h35.746v100c0 2.652 1.054 5.196 2.929 7.071l22.766 22.764c14.014 14.015 21.872 32.535 22.268 52.292h-131.671c.395-19.756 8.253-38.275 22.268-52.291zm-22.307 298.164v-34h131.746v34z" data-original="#000000" class=""/><path id="XMLID_1160_" d="m407.979 364h-104c-5.522 0-10 4.477-10 10v102.5c0 19.575 15.925 35.5 35.5 35.5h53c19.575 0 35.5-15.925 35.5-35.5v-102.5c0-5.523-4.478-10-10-10zm-94 20h84v52.5c0 8.547-6.953 15.5-15.5 15.5h-53c-8.547 0-15.5-6.953-15.5-15.5zm68.5 108h-53c-8.547 0-15.5-6.953-15.5-15.5v-8.069c4.686 2.284 9.945 3.569 15.5 3.569h53c5.555 0 10.814-1.285 15.5-3.569v8.069c0 8.547-6.954 15.5-15.5 15.5z" data-original="#000000" class=""/><path id="XMLID_1193_" d="m111.086 359.13c1.87-1.86 2.94-4.43 2.94-7.07 0-2.63-1.07-5.21-2.94-7.07-1.859-1.86-4.43-2.93-7.069-2.93-2.63 0-5.21 1.07-7.07 2.93s-2.92 4.44-2.92 7.07c0 2.64 1.06 5.22 2.92 7.07 1.86 1.87 4.44 2.93 7.07 2.93 2.639 0 5.21-1.06 7.069-2.93z" data-original="#000000" class=""/></g> </svg>
