<?xml version="1.0"?>
<svg xmlns="http://www.w3.org/2000/svg" id="Layer_1" enable-background="new 0 0 124 124" height="512px" viewBox="0 0 124 124" width="512px" class=""><g><path d="m115.118 41.833h-1.446c-8.343 0-14.461-2.337-19.801-7.457l-1.001-1.002c-.667-.668-1.78-.668-2.447 0l-1.001 1.002c-5.339 5.12-11.346 7.457-19.801 7.457h-1.446c-1.001 0-1.669.779-1.669 1.67v1.447 4.452c-.334 14.803-.667 35.061 24.25 43.743.667.223 1.446.223 2.114 0 24.918-8.682 24.473-28.939 24.25-43.743 0-1.967-.111-3.932-.111-5.899-.111-.891-.89-1.67-1.891-1.67z" fill="#fff" data-original="#FFF" class=""/><path d="m91.806 95.31c-.576 0-1.149-.09-1.683-.268-26.438-9.212-25.943-31.161-25.616-45.685v-5.854c0-2.058 1.611-3.669 3.668-3.669h1.446c7.864 0 13.372-2.064 18.417-6.901l.971-.972c1.401-1.401 3.875-1.402 5.276 0l1.001 1.001c4.947 4.743 10.626 6.872 18.386 6.872h1.446c1.965 0 3.632 1.471 3.875 3.421l.016.248c0 .965.027 1.93.055 2.894.028 1.001.057 2.003.057 3.005l.003.215c.218 14.458.548 36.307-25.595 45.416-.553.185-1.14.277-1.723.277zm-23.3-51.477v5.569c-.32 14.209-.757 33.608 22.908 41.854.232.077.564.079.823-.009 23.391-8.15 23.111-26.68 22.887-41.569l-.004-.246c0-.995-.027-1.958-.055-2.923-.025-.892-.05-1.784-.056-2.676h-1.338c-8.872 0-15.405-2.472-21.185-8.014l-.84-.84-.81.811c-5.811 5.572-12.344 8.043-21.215 8.043zm46.612 0h.01z" fill="#303053" data-original="#303053" class="" data-old_color="#303053" style="fill:#000000"/><path d="m121.95 46.75h-1.446c-6.832-4.917-14.461-2.337-19.801-7.457l-1.001-1.002c-.667-.668-1.78-.668-2.447 0l-1.001 1.002c-5.339 5.12-11.346 7.457-19.801 7.457h-1.446c-1.001 0-1.669.779-1.669 1.67v1.447 4.452c-.334 14.803-.667 35.061 24.25 43.743.667.223 1.446.223 2.114 0 24.918-8.682 24.473-28.939 24.25-43.743 0-1.558-.111-3.005-.111-4.452v-1.447c-.111-.891-.89-1.67-1.891-1.67z" fill="#ffa35f" data-original="#FFA35F" class="" data-old_color="#ffa35f" style="fill:#24ACE1"/><path d="m91.806 95.31c-.576 0-1.149-.09-1.683-.268-26.438-9.212-25.943-31.161-25.616-45.685v-5.854c0-2.058 1.611-3.669 3.668-3.669h1.446c7.864 0 13.372-2.064 18.417-6.901l.971-.972c1.401-1.401 3.875-1.402 5.276 0l1.001 1.001c4.947 4.743 10.626 6.872 18.386 6.872h1.446c1.965 0 3.632 1.471 3.875 3.421l.016.248v1.447c0 .685.026 1.37.053 2.067.029.775.059 1.565.059 2.385l.003.215c.218 14.458.548 36.307-25.595 45.416-.553.185-1.14.277-1.723.277zm-23.3-51.477v5.569c-.32 14.209-.757 33.608 22.908 41.854.232.077.564.079.823-.009 23.391-8.15 23.111-26.68 22.887-41.569l-.004-.246c0-.798-.028-1.538-.056-2.264-.028-.749-.056-1.483-.056-2.218v-1.117h-1.337c-8.872 0-15.405-2.472-21.185-8.014l-.84-.84-.81.811c-5.811 5.572-12.344 8.043-21.215 8.043zm46.612 0h.01z" fill="#303053" data-original="#303053" class="" data-old_color="#303053" style="fill:#000000"/><path d="m95.703 76.5c-1.104 0-2-.896-2-2v-14.949c0-1.104.896-2 2-2s2 .896 2 2v14.949c0 1.104-.896 2-2 2z" fill="#f28231" data-original="#F28231" class="" data-old_color="#f28231" style="fill:#24ACE1"/><path d="m102.659 69.025h-13.912c-1.104 0-2-.896-2-2s.896-2 2-2h13.913c1.104 0 2 .896 2 2s-.896 2-2.001 2z" fill="#f28231" data-original="#F28231" class="" data-old_color="#f28231" style="fill:#24ACE1"/><path d="m91.799 72.566c-1.104 0-2-.896-2-2v-14.948c0-1.104.896-2 2-2s2 .896 2 2v14.949c0 1.104-.896 1.999-2 1.999z" fill="#fff" data-original="#FFF" class=""/><path d="m98.755 65.092h-13.912c-1.104 0-2-.896-2-2s.896-2 2-2h13.912c1.104 0 2 .896 2 2s-.896 2-2 2z" fill="#fff" data-original="#FFF" class=""/><path d="m23.643 28.005c6.919 0 12.495-5.58 12.495-12.503s-5.576-12.502-12.495-12.502-12.495 5.58-12.495 12.503 5.577 12.502 12.495 12.502z" fill="#e9faff" data-original="#E9FAFF" class="active-path" data-old_color="#e9faff" style="fill:#FFFFFF"/><path d="m23.644 30.005c-7.993 0-14.496-6.506-14.496-14.502s6.503-14.503 14.496-14.503 14.495 6.506 14.495 14.502-6.503 14.503-14.495 14.503zm0-25.005c-5.787 0-10.496 4.711-10.496 10.502s4.708 10.502 10.496 10.502 10.495-4.711 10.495-10.502-4.708-10.502-10.495-10.502z" fill="#303053" data-original="#303053" class="" data-old_color="#303053" style="fill:#000000"/><path d="m37.972 34.552s-3.808-.888-4.008-.395l-9.619 18.553c-.301.592-1.102.592-1.303 0l-9.619-18.553c-.2-.395-4.008.395-4.008.395-4.409 1.48-7.415 5.526-7.415 10.066v14.803c0 4.539 1.503 8.98 4.309 12.533l4.409 4.441v-14.211 14.211 43.52c0 .592.501 1.086 1.102 1.086h11.824v-43.422 43.323h11.824c.601 0 1.102-.493 1.102-1.086v-43.125-14.507 14.507l4.409-4.737c2.806-3.553 4.309-7.993 4.309-12.533v-14.803c-.001-4.638-2.907-8.684-7.316-10.066z" fill="#acebff" data-original="#ACEBFF" class="" style="fill:#FFFFFF" data-old_color="#acebff"/><path d="m36.569 89.195v-12.504-14.507 14.507l4.409-4.737c2.806-3.553 4.309-7.993 4.309-12.533v-14.803c0-4.638-2.906-8.684-7.315-10.066s-3.808-.888-4.008-.395l-9.619 18.553c-.301.592-1.102.592-1.303 0l-9.619-18.553c-.2-.395-4.008.395-4.008.395-4.409 1.48-7.415 5.526-7.415 10.066v14.803c0 4.539 1.503 8.98 4.309 12.533l4.409 4.441v-14.211 14.211 43.52c0 .592.501 1.086 1.102 1.086h11.824v-43.422 43.323h11.824c.601 0 1.102-.493 1.102-1.086v-24.017" fill="#acebff" data-original="#ACEBFF" class="" style="fill:#FFFFFF" data-old_color="#acebff"/><path d="m23.644 123h-11.824c-1.711 0-3.103-1.384-3.103-3.085v-42.696l-3.828-3.856c-.053-.054-.104-.11-.15-.169-3.056-3.871-4.739-8.762-4.739-13.773v-14.803c0-5.393 3.528-10.2 8.779-11.962.075-.025.152-.046.23-.063 3.915-.812 5.439-.835 6.198.659l8.487 16.369 8.464-16.325c.75-1.654 2.639-1.538 6.269-.691.048.011.097.024.144.039 5.213 1.634 8.716 6.446 8.716 11.975v14.803c0 5.011-1.683 9.902-4.739 13.772-.033.042-.068.083-.105.123l-3.873 4.161v11.718c0 1.104-.896 2-2 2s-2-.896-2-2v-27.012c0-1.104.896-2 2-2s2 .896 2 2v9.422l.888-.954c2.47-3.157 3.83-7.142 3.83-11.231v-14.803c0-3.747-2.345-7.006-5.843-8.135-.777-.179-1.616-.333-2.218-.414l-9.107 17.561c-.505.996-1.549 1.59-2.657 1.517-.996-.072-1.856-.695-2.244-1.608l-9.037-17.431c-.609.077-1.449.216-2.24.377-3.559 1.244-5.942 4.499-5.942 8.133v14.803c0 4.078 1.353 8.053 3.81 11.206l.907.914v-9.357c0-1.104.896-2 2-2s2 .896 2 2v56.816h8.926v-41.421c0-1.104.896-2 2-2s2 .896 2 2v41.323h8.926v-23.103c0-1.104.896-2 2-2s2 .896 2 2v24.017c0 1.701-1.392 3.085-3.103 3.085h-11.2c-.196.064-.405.099-.622.099zm1.291-70.935c0 .001.001.002.001.003 0-.001 0-.002-.001-.003zm-2.365-.277c-.003.005-.005.011-.008.016zm-10.923-16.71c.005.01.01.02.015.029zm24.169-.167c0 .001-.001.003-.002.005.001-.002.002-.003.002-.005z" fill="#303053" data-original="#303053" class="" data-old_color="#303053" style="fill:#000000"/></g> </svg>
