<svg id="Layer_1" enable-background="new 0 0 124 124" height="512" viewBox="0 0 124 124" width="512" xmlns="http://www.w3.org/2000/svg"><path d="m2 66.725h20.194v35.51h-20.194z" fill="#acebff"/><path d="m22.194 104.234h-20.194c-1.104 0-2-.896-2-2v-35.51c0-1.104.896-2 2-2h20.194c1.104 0 2 .896 2 2v35.51c0 1.105-.896 2-2 2zm-18.194-4h16.194v-31.51h-16.194z" fill="#303053"/><path d="m44.89 86.311 14.921 7.152c3.567 1.71 7.991.591 10.058-2.543 2.097-3.18 1.017-7.289-2.439-9.277l-11.906-6.849c-5.583-3.211-12.063-4.917-18.681-4.917h-14.649v28.135c3.216.09 6.344.973 9.044 2.554l10.868 6.362c10.939 6.404 24.92 6.758 36.238.916l42.291-29.55c2.064-1.442 1.735-4.204-.627-5.267-6.968-3.133-15.219-2.862-21.917.719l-27.221 14.554" fill="#fff"/><path d="m120.007 73.028c-1.311-.589-2.667-1.058-4.05-1.407l-37.614 26.282c-11.319 5.841-25.299 5.488-36.238-.916l-10.868-6.362c-2.7-1.581-5.828-2.464-9.044-2.554v9.942c3.216.09 6.344.973 9.044 2.554l10.868 6.362c10.939 6.404 24.92 6.758 36.238.916l42.291-29.55c2.064-1.443 1.736-4.205-.627-5.267z" fill="#e9faff"/><g fill="#303053"><path d="m70.872 90.3c-.714 0-1.405-.383-1.766-1.057-.521-.975-.153-2.187.821-2.707l20.502-10.961c.976-.52 2.186-.153 2.707.82.521.975.153 2.187-.821 2.707l-20.502 10.962c-.301.16-.624.236-.941.236z"/><path d="m61.051 114.009c-6.943 0-13.872-1.792-19.956-5.354l-10.868-6.362c-2.411-1.411-5.208-2.199-8.089-2.28-1.083-.03-1.944-.916-1.944-1.999v-28.137c0-1.104.896-2 2-2h14.649c6.978 0 13.783 1.792 19.678 5.184l11.905 6.849c2.208 1.27 3.731 3.263 4.288 5.612.53 2.236.113 4.545-1.176 6.499-2.608 3.955-8.139 5.378-12.592 3.246l-14.921-7.152c-.996-.478-1.416-1.672-.939-2.668.478-.997 1.672-1.416 2.668-.939l14.921 7.152c2.643 1.267 6.018.441 7.524-1.841.675-1.023.896-2.222.623-3.374-.3-1.265-1.149-2.354-2.391-3.068l-11.905-6.849c-5.29-3.042-11.405-4.65-17.684-4.65h-12.648v24.279c2.861.342 5.614 1.255 8.054 2.685l10.867 6.362c10.363 6.065 23.451 6.416 34.194.925l42.18-29.473c.357-.25.538-.563.508-.882-.035-.37-.33-.705-.809-.921-6.436-2.892-13.971-2.647-20.155.658-.975.521-2.186.153-2.707-.82-.521-.975-.153-2.187.821-2.707 7.268-3.887 16.121-4.177 23.681-.779 1.802.81 2.98 2.378 3.151 4.195.166 1.762-.656 3.457-2.199 4.535l-42.291 29.55c-.073.051-.149.097-.228.138-5.676 2.929-11.949 4.386-18.21 4.386z"/><path d="m62.959 65.88c-.276 0-.567-.066-.882-.229l.002-.006c-.225-.102-.444-.227-.66-.351-2.741-1.565-26.813-15.809-27.798-33.636-.201-3.088-.675-10.365 4.58-15.916 4.299-4.553 10.029-5.417 13.063-5.527.039 0 .079-.001.117-.001 4.443 0 8.581 2.432 11.611 4.858 3.057-2.447 7.19-4.918 11.658-4.859 3.104.112 8.835.977 13.135 5.531 5.253 5.551 4.78 12.826 4.577 15.934-.981 17.765-25.021 32.026-27.758 33.595-.233.133-.462.265-.694.37l.002.005c-.341.177-.656.228-.953.232zm.944-3.787h.001s0 0-.001 0zm-.003-.002s.001 0 .001.001c0-.001-.001-.001-.001-.001zm-.004-.002s.001 0 .001.001c0-.001 0-.001-.001-.001zm-.003-.002s.001.001.002.001c-.001 0-.002-.001-.002-.001zm-.004-.002c0 .001.001.001.001.001s0 0-.001-.001zm-.003-.001h.001zm-.004-.002h.001s0 0-.001 0zm-.003-.002s.001 0 0 0zm-12.43-47.866c-.025 0-.05 0-.075 0-2.386.087-6.944.76-10.265 4.277-4.057 4.285-3.662 10.342-3.494 12.928.774 14.007 19.769 27.023 25.378 30.188 5.609-3.164 24.605-16.178 25.377-30.169.169-2.605.564-8.662-3.491-12.945 0-.001-.001-.001-.001-.002-3.321-3.518-7.879-4.19-10.301-4.278-.024 0-.049 0-.074 0-3.773 0-7.62 2.699-10.183 4.973-.758.672-1.896.672-2.654 0-2.563-2.273-6.409-4.972-10.217-4.972z"/></g><path d="m93.099 14.896c-4.403-4.663-10.599-4.864-11.7-4.904-4.148-.039-8.329 2.54-11.638 5.475-3.31-2.935-5.998.348-10.146.387-1.101.04-8.79-5.622-13.192-.959-4.566 4.824-4.24 11.296-4.036 14.431.977 17.691 27.293 32.366 27.374 32.324.081.042 26.397-14.633 27.374-32.324.204-3.135.53-9.606-4.036-14.43z" fill="#ffa35f"/><path d="m70.666 54.775c-.007 0-.014 0-.021 0-.771-.008-1.469-.458-1.793-1.158l-9.175-19.759-5.072 8.099c-.366.584-1.006.938-1.695.938h-12.556c-1.104 0-2-.896-2-2s.896-2 2-2h11.448l6.441-10.284c.389-.622 1.082-.986 1.82-.935.732.046 1.38.488 1.689 1.154l8.961 19.299 3.812-7.785c.336-.686 1.033-1.12 1.796-1.12h11.538c1.104 0 2 .896 2 2s-.896 2-2 2h-10.29l-5.107 10.431c-.337.686-1.034 1.12-1.796 1.12z" fill="#f28231"/><path d="m61.642 50.331c-.007 0-.014 0-.021 0-.771-.008-1.469-.458-1.793-1.158l-9.175-19.759-5.072 8.099c-.366.584-1.006.938-1.695.938h-14.812c-1.104 0-2-.896-2-2s.896-2 2-2h13.704l6.441-10.284c.389-.622 1.082-.99 1.82-.935.732.046 1.38.488 1.689 1.154l8.961 19.299 3.812-7.785c.336-.686 1.033-1.12 1.796-1.12h11.538c1.104 0 2 .896 2 2s-.896 2-2 2h-10.29l-5.107 10.431c-.336.686-1.034 1.12-1.796 1.12z" fill="#fff"/><path d="m62.959 65.88c-.276 0-.567-.066-.882-.229l.002-.006c-.225-.102-.444-.227-.66-.351-2.741-1.565-26.813-15.809-27.798-33.636-.201-3.088-.675-10.365 4.58-15.916 4.299-4.553 10.029-5.417 13.063-5.527.039 0 .079-.001.117-.001 4.443 0 8.581 2.432 11.611 4.858 3.057-2.447 7.19-4.918 11.658-4.859 3.104.112 8.835.977 13.135 5.531 5.253 5.551 4.78 12.826 4.577 15.934-.981 17.765-25.021 32.026-27.758 33.595-.233.133-.462.265-.694.37l.002.005c-.341.177-.656.228-.953.232zm.944-3.787h.001s0 0-.001 0zm-.003-.002s.001 0 .001.001c0-.001-.001-.001-.001-.001zm-.004-.002s.001 0 .001.001c0-.001 0-.001-.001-.001zm-.003-.002s.001.001.002.001c-.001 0-.002-.001-.002-.001zm-.004-.002c0 .001.001.001.001.001s0 0-.001-.001zm-.003-.001h.001zm-.004-.002h.001s0 0-.001 0zm-.003-.002s.001 0 0 0zm-12.43-47.866c-.025 0-.05 0-.075 0-2.386.087-6.944.76-10.265 4.277-4.057 4.285-3.662 10.342-3.494 12.928.774 14.007 19.769 27.023 25.378 30.188 5.609-3.164 24.605-16.178 25.377-30.169.169-2.605.564-8.662-3.491-12.945 0-.001-.001-.001-.001-.002-3.321-3.518-7.879-4.19-10.301-4.278-.024 0-.049 0-.074 0-3.773 0-7.62 2.699-10.183 4.973-.758.672-1.896.672-2.654 0-2.563-2.273-6.409-4.972-10.217-4.972z" fill="#303053"/></svg>