<?xml version="1.0"?>
<svg xmlns="http://www.w3.org/2000/svg" id="Layer_1" enable-background="new 0 0 124 124" height="512px" viewBox="0 0 124 124" width="512px" class=""><g><path d="m2.001 70.483h20.067v40.877h-20.067z" fill="#6dc9f7" data-original="#6DC9F7" class="active-path" data-old_color="#6dc9f7" style="fill:#24ACE1"/><path d="m22.068 113.358h-20.067c-1.105 0-2.001-.895-2.001-1.998v-40.877c0-1.103.896-1.998 2.001-1.998h20.067c1.105 0 2.001.895 2.001 1.998v40.877c0 1.103-.896 1.998-2.001 1.998zm-18.066-3.996h16.066v-36.881h-16.066z" fill="#303053" data-original="#303053" class="" data-old_color="#303053" style="fill:#000000"/><path d="m12.034 104.883c-1.105 0-2.001-.895-2.001-1.998v-7.949c0-1.103.896-1.998 2.001-1.998s2.001.895 2.001 1.998v7.949c0 1.103-.896 1.998-2.001 1.998z" fill="#4cbbe9" data-original="#4CBBE9" class="" data-old_color="#4cbbe9" style="fill:#FFFFFF"/><path d="m17.066 70.483v35.882h-15.065v4.995h20.067v-40.877z" fill="#fff" data-original="#FFF" class=""/><path d="m47.29 68.248c7.163-1.178 14.459 1.098 19.711 6.149l10.941 10.521c2.678 2.717 2.498 7.158-.393 9.645-2.565 2.207-6.375 2.08-8.79-.293l-14.102-13.856 14.102 13.856c2.415 2.373 6.225 2.5 8.79.293l28.136-8.755c4.911-1.062 10.037-.305 14.439 2.134 2.548 1.412 2.568 5.096.036 6.537l-26.238 14.926c-6.129 3.487-13.169 5.002-20.176 4.344l-51.679-8.481v-29.024z" fill="#fff" data-original="#FFF" class=""/><path d="m120.124 87.942c-1.092-.605-2.229-1.105-3.396-1.502l-22.805 12.975c-6.129 3.487-13.169 5.002-20.176 4.344l-51.679-8.481v9.991l51.679 8.481c7.007.659 14.046-.857 20.176-4.344l26.238-14.927c2.531-1.441 2.511-5.125-.037-6.537z" fill="#acebff" data-original="#ACEBFF" class="" data-old_color="#acebff" style="fill:#FFFFFF"/><path d="m121.095 86.195c-4.827-2.674-10.449-3.505-15.833-2.341-.058.013-.115.028-.172.046l-23.406 7.283c.536-2.777-.371-5.694-2.355-7.706l-5.887-5.661c-.797-.766-2.063-.742-2.829.053s-.742 2.061.054 2.825l5.848 5.624c1.844 1.869 1.717 5.018-.272 6.73-1.787 1.537-4.4 1.449-6.081-.203l-14.101-13.856c-1.829-1.792-4.657 1.031-2.807 2.849l14.102 13.857c.034.033.069.066.103.1 3.016 2.87 7.765 3.118 11.056.561l27.679-8.613c4.409-.934 9.008-.242 12.96 1.947 1.17.648 1.179 2.392.017 3.053l-26.238 14.926c-5.779 3.289-12.319 4.705-18.931 4.097l-49.933-8.194v-25.866l23.685-7.509c6.457-1.016 13.124 1.087 17.859 5.639.794.765 2.061.741 2.829-.053.767-.795.743-2.061-.053-2.825-5.674-5.457-13.685-7.953-21.424-6.682-.095.016-.189.038-.28.067l-22.616 7.17v-3.03c0-1.103-.896-1.998-2.001-1.998h-20.067c-1.105 0-2.001.894-2.001 1.998v40.877c0 1.103.896 1.998 2.001 1.998h20.067c1.105 0 2.001-.895 2.001-1.998v-3.739l49.354 8.1c3.56.612 7.6.132 11.101-.615 3.641-.777 7.154-2.124 10.389-3.964l26.238-14.927c3.824-2.176 3.792-7.886-.056-10.02zm-101.028 23.167h-16.065v-36.881h16.066v36.881z" fill="#303053" data-original="#303053" class="" data-old_color="#303053" style="fill:#000000"/><ellipse cx="82.032" cy="31.977" fill="#fff" rx="22.175" ry="21.979" data-original="#FFF" class=""/><ellipse cx="86.033" cy="32.976" fill="#ffa35f" rx="22.175" ry="21.979" data-original="#FFA35F" class="" data-old_color="#ffa35f" style="fill:#24ACE1"/><path d="m82.032 55.955c-13.33 0-24.175-10.756-24.175-23.977s10.844-23.978 24.175-23.978 24.175 10.756 24.175 23.977-10.845 23.978-24.175 23.978zm0-43.959c-11.124 0-20.174 8.963-20.174 19.981s9.05 19.981 20.174 19.981 20.174-8.963 20.174-19.981-9.05-19.981-20.174-19.981z" fill="#303053" data-original="#303053" class="" data-old_color="#303053" style="fill:#000000"/><path d="m97.73 32.976h-8.697v-8.991c0-1.103-.896-1.998-2.001-1.998s-2.001.895-2.001 1.998v8.991h-8.697c-1.105 0-2.001.895-2.001 1.998s.896 1.998 2.001 1.998h8.697v8.991c0 1.103.896 1.998 2.001 1.998s2.001-.895 2.001-1.998v-8.991h8.697c1.105 0 2.001-.895 2.001-1.998s-.897-1.998-2.001-1.998z" fill="#f28231" data-original="#F28231" class="" style="fill:#24ACE1" data-old_color="#f28231"/><path d="m95.217 29.979h-11.187v-11.146c0-1.103-.896-1.998-2.001-1.998s-2.001.895-2.001 1.998v11.146h-11.186c-1.105 0-2.001.895-2.001 1.998s.896 1.998 2.001 1.998h11.186v11.146c0 1.103.896 1.998 2.001 1.998s2.001-.895 2.001-1.998v-11.146h11.187c1.105 0 2.001-.895 2.001-1.998s-.896-1.998-2.001-1.998z" fill="#fff" data-original="#FFF" class=""/></g> </svg>
