<svg enable-background="new 0 0 60 60" height="512" viewBox="0 0 60 60" width="512" xmlns="http://www.w3.org/2000/svg"><g fill="#fff"><path d="m36 30.5v24h24v-24zm22 22h-9v-12.586l4.293 4.293 1.414-1.414-6.707-6.707-6.707 6.707 1.414 1.414 4.293-4.293v12.586h-9v-20h20z"/><path d="m25.369 29.353c1.001.894 2.317 1.341 3.632 1.341 1.313 0 2.627-.446 3.625-1.337l23.374-20.639v17.782c0 .553.448 1 1 1s1-.447 1-1v-20c0-.008-.004-.014-.005-.022-.002-.111-.019-.223-.06-.331-.003-.007-.008-.012-.011-.019-.011-.027-.029-.048-.041-.073-.041-.081-.09-.156-.15-.222-.026-.028-.053-.052-.082-.077-.062-.055-.13-.1-.204-.137-.033-.017-.063-.034-.097-.047-.11-.043-.226-.072-.35-.072h-56c-.124 0-.24.029-.351.071-.035.013-.065.031-.097.047-.074.038-.142.083-.204.138-.029.025-.056.048-.082.077-.06.066-.108.14-.15.222-.012.025-.03.046-.041.072-.003.007-.008.013-.011.019-.041.108-.057.22-.06.331 0 .009-.004.015-.004.023v39c0 .003.002.005.002.009.001.107.017.214.053.319.004.012.013.021.018.033.014.035.035.065.052.098.038.073.082.141.136.201.028.031.056.058.087.085.061.053.127.097.199.134.034.018.065.037.101.051.111.041.228.07.352.07h30c.552 0 1-.447 1-1s-.448-1-1-1h-27.121c4.548-3.604 14.801-11.781 20.069-16.403zm28.988-21.853-23.058 20.36c-1.267 1.132-3.33 1.132-4.602-.004l-1.979-1.747c-.006-.007-.007-.015-.013-.021-.022-.025-.053-.035-.077-.058l-20.985-18.53zm-52.357 35.937v-34.719l20.437 18.046c-5.556 4.853-16.351 13.44-20.437 16.673z"/></g></svg>