<svg enable-background="new 0 0 33.872 33.872" height="512" viewBox="0 0 33.872 33.872" width="512" xmlns="http://www.w3.org/2000/svg"><g fill="#fff"><path d="m24.156 33.872c-1.237 0-2.731-.31-4.373-.93-3.603-1.358-7.522-4.042-11.036-7.556-3.515-3.514-6.198-7.434-7.557-11.036-1.236-3.275-1.239-5.964-.01-7.193.177-.178.358-.368.544-.563 1.124-1.18 2.415-2.52 4.074-2.449 1.16.048 2.283.768 3.434 2.198 3.396 4.226 1.866 5.732.094 7.478l-.313.31c-.29.29-.839 1.633 4.26 6.731 1.664 1.664 3.083 2.882 4.217 3.619.715.465 1.99 1.166 2.514.642l.315-.318c1.745-1.77 3.251-3.296 7.474.099 1.431 1.149 2.149 2.272 2.198 3.433.069 1.681-1.27 2.952-2.451 4.075-.194.185-.385.365-.562.542-.614.611-1.59.918-2.822.918zm-18.476-28.73c-1.195 0-2.275 1.136-3.23 2.141-.192.2-.379.397-.562.58-.916.915-.822 3.323.238 6.134 1.31 3.472 3.912 7.266 7.328 10.683 3.416 3.415 7.209 6.018 10.682 7.327 2.813 1.062 5.219 1.152 6.135.237.183-.183.379-.369.58-.561 1.027-.976 2.191-2.081 2.14-3.308-.034-.844-.648-1.75-1.825-2.695-3.52-2.829-4.503-1.831-6.135-.176l-.32.323c-.779.781-2.047.607-3.766-.51-1.192-.775-2.666-2.038-4.379-3.751-4.231-4.231-5.585-6.819-4.26-8.146l.318-.315c1.658-1.632 2.659-2.617-.171-6.138-.946-1.175-1.852-1.789-2.696-1.824-.026-.001-.052-.001-.077-.001z"/><path d="m27.478 25.791c-.154 0-.306-.071-.404-.205-.162-.224-.113-.536.109-.699 1.036-.756 1.957-1.658 2.737-2.683 1.76-2.313 2.69-5.077 2.69-7.992.001-7.285-5.925-13.212-13.21-13.212-2.207 0-4.392.556-6.317 1.605-.242.134-.546.045-.678-.199-.133-.242-.043-.546.199-.678 2.072-1.13 4.422-1.728 6.796-1.728 7.836 0 14.211 6.375 14.211 14.212 0 3.136-1.001 6.108-2.896 8.598-.838 1.102-1.828 2.072-2.942 2.886-.088.064-.192.095-.295.095z"/><path d="m16.618 8.806c.596-.18 1.168-.292 1.785-.292 1.596 0 2.572.797 2.572 2.156 0 .752-.416 1.325-1.303 1.909l-1.785 1.201c-.551.371-.798.955-.798 1.584h3.649c.079 0 .124.045.124.123v.865c0 .078-.045.123-.124.123h-4.795c-.078 0-.123-.045-.123-.123v-.539c0-1.37.449-2.358 1.459-3.021l1.775-1.179c.449-.304.65-.596.65-.943 0-.629-.494-1.033-1.303-1.033-.505 0-.988.09-1.414.235l-.652.214c-.066.022-.123-.012-.146-.079l-.28-.842c-.034-.067 0-.124.078-.146z"/><path d="m27.907 14.342c0 .079-.045.124-.123.124h-.696v1.887c0 .078-.045.123-.124.123h-1.01c-.079 0-.124-.045-.124-.123v-1.887h-3.763c-.078 0-.123-.045-.123-.124v-.943c0-.067.012-.112.057-.157.28-.325.527-.629.797-.999l2.078-2.673c.213-.281.381-.551.572-.865.045-.056.09-.078.157-.078h1.358c.079 0 .124.045.124.123v4.604h.696c.078 0 .123.045.123.124v.864zm-2.077-2.931c0-.359.022-.719.067-1.101.022-.135-.078-.169-.168-.045l-1.82 2.313c-.146.202-.359.46-.516.606-.079.09-.034.168.056.168h2.381z"/></g></svg>