<svg enable-background="new 0 0 32.635 32.635" height="512" viewBox="0 0 32.635 32.635" width="512" xmlns="http://www.w3.org/2000/svg"><g fill="#fff"><path d="m32.135 16.817h-31.635c-.276 0-.5-.224-.5-.5s.224-.5.5-.5h31.635c.276 0 .5.224.5.5s-.224.5-.5.5z"/><path d="m19.598 29.353c-.128 0-.256-.049-.354-.146-.195-.195-.195-.512 0-.707l12.184-12.184-12.184-12.18c-.195-.195-.195-.512 0-.707s.512-.195.707 0l12.537 12.533c.094.094.146.221.146.354s-.053.26-.146.354l-12.537 12.536c-.097.098-.225.147-.353.147z"/></g></svg>